<svg xmlns="http://www.w3.org/2000/svg" viewBox="0 0 1640 3180"preserveAspectRatio="none"><defs><style>.cls-1{fill:#3997ab;}.cls-2{fill:#00243a;}.cls-3{fill:#2f7b91;}</style></defs><g id="Layer_2" data-name="Layer 2"><g id="Layer_1-2" data-name="Layer 1"><path class="cls-1" d="M0,1951.93V0H1640V1947.93a16.14,16.14,0,0,1-5.85,3.77c-4.24.57-7.76-1.7-11.35-3.23-34.31-14.57-69.11-28-103.41-42.43-40.05-16.89-81.89-28-122.61-42.53-34.2-12.22-69.82-20-105-28.68a1899,1899,0,0,0-239.63-43.28c-46.25-5.3-92.69-8.78-139.26-11.07-53.63-2.64-107.25-2.2-160.81-1.07-48.16,1-96.26,5.33-144.27,10.52q-88.49,9.57-175.61,27c-39.82,8-79.49,16.71-118.6,27.92-19.5,5.59-39.7,9-58.8,15.85-31,11.18-62.72,20.14-93.66,31.56q-52.49,19.37-104.26,40.42c-15.72,6.41-30.79,14.32-46.86,19.94C6.39,1953.92,3.1,1955.46,0,1951.93Z"/><path class="cls-2" d="M0,1951.93c29.9-13.28,59.89-26.29,90.27-38.47,22.11-8.87,44.6-16.65,66.9-25,51-19.08,103.06-34.84,155.67-49,58.46-15.72,117.56-28.4,177.16-38.68,49.85-8.6,100.08-14.61,150.48-19.38,85.75-8.1,171.65-9.65,257.61-6.76a1857.22,1857.22,0,0,1,235.41,23.06c63.68,10.34,126.82,23.19,189.16,39.82,27.28,7.27,54.64,14.24,81.52,22.93,23,7.45,46,15.18,69,22.69,26.72,8.71,52.41,20.1,78.62,30.13,27.79,10.64,55,22.53,82.18,34.66,2,1.28,5,1.23,6,4V3180H0Z"/><path class="cls-3" d="M1640,1951.93l-6-4,6,0Z"/></g></g></svg>